<?xml version="1.0" standalone="no"?>
<!DOCTYPE svg PUBLIC "-//W3C//DTD SVG 20010904//EN"
 "http://www.w3.org/TR/2001/REC-SVG-20010904/DTD/svg10.dtd">
<svg version="1.0" xmlns="http://www.w3.org/2000/svg"
 width="305.000000pt" height="309.000000pt" viewBox="0 0 305.000000 309.000000"
 preserveAspectRatio="xMidYMid meet">

<g transform="translate(0.000000,309.000000) scale(0.100000,-0.100000)"
fill="#FFFFFF" stroke="none">
<path d="M1390 3084 c-14 -2 -59 -9 -100 -15 -507 -75 -960 -432 -1163 -917
-242 -578 -123 -1232 308 -1681 176 -184 377 -312 612 -390 751 -251 1567 122
1877 858 76 181 126 423 126 609 0 99 -23 270 -51 381 -142 570 -610 1017
-1185 1131 -94 19 -366 35 -424 24z m-546 -947 c34 -25 36 -89 11 -322 -13
-121 -38 -362 -55 -535 -18 -173 -34 -321 -36 -328 -3 -9 -23 -12 -76 -10 -72
3 -73 3 -91 38 -26 49 -19 168 37 703 25 241 46 445 46 453 0 19 138 20 164 1z
m660 2 c50 -23 58 -127 15 -198 l-20 -33 -62 7 c-36 4 -73 2 -89 -4 -38 -14
-97 -70 -201 -189 l-89 -103 22 -52 c76 -178 247 -412 356 -484 30 -20 54 -42
54 -49 0 -32 -137 -94 -209 -94 -62 0 -217 213 -356 488 -42 83 -46 99 -41
135 9 53 61 146 121 217 62 73 250 264 301 306 68 56 146 77 198 53z m756 -24
c126 -40 183 -112 183 -233 0 -106 -41 -183 -136 -252 l-37 -28 54 -31 c59
-33 118 -101 137 -158 17 -51 7 -178 -18 -235 -43 -96 -138 -170 -264 -204
-54 -14 -508 -40 -535 -30 -7 3 -18 23 -24 46 -9 34 -2 129 45 563 30 287 59
533 63 547 6 22 15 26 67 31 33 4 139 6 235 4 133 -2 188 -6 230 -20z"/>
<path d="M1916 1999 c-13 -39 -87 -851 -80 -884 l7 -37 61 6 c188 20 272 60
318 151 44 85 17 225 -53 277 -25 19 -28 19 -81 3 -63 -20 -95 -16 -134 18
-37 32 -27 51 38 72 157 52 238 134 238 243 0 101 -69 149 -227 159 -65 5 -84
3 -87 -8z"/>
</g>
</svg>